<?xml version="1.0" encoding="utf-8"?>
<svg version="1.1" id="Layer_1" xmlns="http://www.w3.org/2000/svg" xmlns:xlink="http://www.w3.org/1999/xlink" x="0px" y="0px"
	 viewBox="0 0 96 96" enable-background="new 0 0 96 96" xml:space="preserve">
<g>
	<path fill="#660000" d="M31.3,38.4l4,30.7c0,1.2,1,2.2,2.3,2.2H48h10.4c1.3,0,2.3-1,2.3-2.2l4-30.7H31.3z"/>
	<path fill="#660000" d="M62.3,27.9c1.8,0,3.3,0.7,3.3,1.6V33c0,0.9-1.5,0.7-3.3,0.7H33.7c-1.8,0-3.3,0.2-3.3-0.7v-3.5c0-0.9,1.5-1.6,3.3-1.6
		l6.6-0.6l2.4-2.7H53l2.5,2.7L62.3,27.9z"/>
</g>
</svg>
